<svg width="50" height="50" viewBox="0 0 50 50" fill="none" xmlns="http://www.w3.org/2000/svg">
<path d="M35.4166 43.75V39.5833C35.4166 37.3732 34.5387 35.2536 32.9759 33.6908C31.4131 32.128 29.2935 31.25 27.0833 31.25H10.4166C8.20651 31.25 6.08689 32.128 4.52409 33.6908C2.96129 35.2536 2.08331 37.3732 2.08331 39.5833V43.75M47.9166 43.75V39.5833C47.9153 37.7369 47.3007 35.9433 46.1695 34.484C45.0383 33.0247 43.4544 31.9824 41.6666 31.5208M33.3333 6.52083C35.1258 6.97979 36.7146 8.02229 37.8492 9.48398C38.9838 10.9457 39.5997 12.7434 39.5997 14.5937C39.5997 16.4441 38.9838 18.2418 37.8492 19.7035C36.7146 21.1652 35.1258 22.2077 33.3333 22.6667M27.0833 14.5833C27.0833 19.1857 23.3524 22.9167 18.75 22.9167C14.1476 22.9167 10.4166 19.1857 10.4166 14.5833C10.4166 9.98096 14.1476 6.25 18.75 6.25C23.3524 6.25 27.0833 9.98096 27.0833 14.5833Z" stroke="#1E1E1E" stroke-width="4" stroke-linecap="round" stroke-linejoin="round"/>
</svg>
